# xmcd
#
# Track frame offsets:
#	150
#	14517
#	27173
#	40559
#	54697
#	66548
#	93513
#	114045
#	132377
#	153008
#	170161
#	186895
#	203207
#	229173
#	246639
#	263249
#
# Disc length: 3962 seconds
#
# Revision: 0
# Processed by: cddbd v1.5.1PL0 Copyright (c) Steve Scherf et al.
# Submitted via: EasyCDDAExtractor 7.5.2.1
#
DISCID=e10f7810
DTITLE=Eric Clapton - Royal ALbert Hall 2/19/95 [CD1]
DYEAR=1995
DGENRE=Bootleg
TTITLE0=Motherless Child
TTITLE1=Malted Milk
TTITLE2=From Four Till Late
TTITLE3=How Long
TTITLE4=Kidman Blues
TTITLE5=County Jail
TTITLE6=44
TTITLE7=Blues All Day Long
TTITLE8=Standin' Round Cryin'
TTITLE9=Hoochie Coochie Man
TTITLE10=It Hurts Me Too
TTITLE11=Blues Before Sunrise
TTITLE12=Third Degree
TTITLE13=Reconsider Baby
TTITLE14=Sinners' Prayer
TTITLE15=Everyday I Have the Blues
EXTD=
EXTT0=
EXTT1=
EXTT2=
EXTT3=
EXTT4=
EXTT5=
EXTT6=
EXTT7=
EXTT8=
EXTT9=
EXTT10=
EXTT11=
EXTT12=
EXTT13=
EXTT14=
EXTT15=
PLAYORDER=
